<svg width="43" height="34" viewBox="0 0 43 34" fill="none" xmlns="http://www.w3.org/2000/svg">
<path d="M39.0909 1C36.9214 0.3 34.5368 0 32.25 0C28.4386 0 24.3341 0.8 21.5 3C18.6659 0.8 14.5614 0 10.75 0C6.93864 0 2.83409 0.8 0 3V32.3C0 32.8 0.488636 33.3 0.977273 33.3C1.17273 33.3 1.27045 33.2 1.46591 33.2C4.10455 31.9 7.91591 31 10.75 31C14.5614 31 18.6659 31.8 21.5 34C24.1386 32.3 28.9273 31 32.25 31C35.475 31 38.7977 31.6 41.5341 33.1C41.7295 33.2 41.8273 33.2 42.0227 33.2C42.5114 33.2 43 32.7 43 32.2V3C41.8273 2.1 40.5568 1.5 39.0909 1ZM39.0909 28C36.9409 27.3 34.5955 27 32.25 27C28.9273 27 24.1386 28.3 21.5 30V7C24.1386 5.3 28.9273 4 32.25 4C34.5955 4 36.9409 4.3 39.0909 5V28Z" fill="black"/>
</svg>
